<?xml version="1.0" encoding="utf-8"?>
<!-- Generator: Adobe Illustrator 16.0.0, SVG Export Plug-In . SVG Version: 6.00 Build 0)  -->
<!DOCTYPE svg PUBLIC "-//W3C//DTD SVG 1.1//EN" "http://www.w3.org/Graphics/SVG/1.1/DTD/svg11.dtd">
<svg version="1.1" id="Calque_1" xmlns="http://www.w3.org/2000/svg" xmlns:xlink="http://www.w3.org/1999/xlink" x="0px" y="0px"
	 width="1332.133px" height="1270.979px" viewBox="0 0 1332.133 1270.979" enable-background="new 0 0 1332.133 1270.979"
	 xml:space="preserve">
<g id="Calque_2">
	<line fill="none" stroke="#FFFFFF" stroke-miterlimit="10" x1="513.236" y1="570.914" x2="628.236" y2="821.914"/>
	<line fill="none" stroke="#FFFFFF" stroke-miterlimit="10" x1="628.236" y1="821.914" x2="561.569" y2="858.581"/>
	<line fill="none" stroke="#FFFFFF" stroke-miterlimit="10" x1="561.569" y1="858.581" x2="566.236" y2="909.247"/>
	<line fill="none" stroke="#FFFFFF" stroke-miterlimit="10" x1="566.236" y1="909.247" x2="506.902" y2="961.247"/>
	<line fill="none" stroke="#FFFFFF" stroke-miterlimit="10" x1="506.902" y1="961.247" x2="382.236" y2="923.247"/>
	<line fill="none" x1="382.236" y1="923.247" x2="404.902" y2="880.581"/>
	<line fill="none" stroke="#FFFFFF" stroke-miterlimit="10" x1="404.902" y1="880.581" x2="628.236" y2="821.914"/>
	<line fill="none" stroke="#FFFFFF" stroke-miterlimit="10" x1="382.236" y1="923.247" x2="404.902" y2="880.581"/>
	<line fill="none" stroke="#FFFFFF" stroke-miterlimit="10" x1="404.902" y1="880.581" x2="506.902" y2="961.247"/>
	<line fill="none" stroke="#FFFFFF" stroke-miterlimit="10" x1="506.902" y1="961.247" x2="492.902" y2="1042.581"/>
	<line fill="none" stroke="#FFFFFF" stroke-miterlimit="10" x1="492.902" y1="1042.581" x2="422.902" y2="1023.247"/>
	<line fill="none" stroke="#FFFFFF" stroke-miterlimit="10" x1="422.902" y1="1023.247" x2="382.236" y2="923.247"/>
	<line fill="none" stroke="#FFFFFF" stroke-miterlimit="10" x1="492.902" y1="1042.581" x2="573.569" y2="1015.247"/>
	<line fill="none" stroke="#FFFFFF" stroke-miterlimit="10" x1="573.569" y1="1015.247" x2="506.902" y2="961.247"/>
	<line fill="none" stroke="#FFFFFF" stroke-miterlimit="10" x1="566.236" y1="909.247" x2="573.569" y2="1015.247"/>
	<line fill="none" stroke="#FFFFFF" stroke-miterlimit="10" x1="513.236" y1="570.914" x2="499.902" y2="640.914"/>
	<line fill="none" stroke="#FFFFFF" stroke-miterlimit="10" x1="499.902" y1="640.914" x2="499.902" y2="660.914"/>
	<line fill="none" stroke="#FFFFFF" stroke-miterlimit="10" x1="499.902" y1="660.914" x2="341.236" y2="691.914"/>
	<line fill="none" stroke="#FFFFFF" stroke-miterlimit="10" x1="341.236" y1="691.914" x2="258.236" y2="785.914"/>
	<line fill="none" stroke="#FFFFFF" stroke-miterlimit="10" x1="258.236" y1="785.914" x2="201.236" y2="738.914"/>
	<line fill="none" stroke="#FFFFFF" stroke-miterlimit="10" x1="201.236" y1="738.914" x2="248.236" y2="676.414"/>
	<line fill="none" stroke="#FFFFFF" stroke-miterlimit="10" x1="248.236" y1="676.414" x2="439.236" y2="738.914"/>
	<line fill="none" stroke="#FFFFFF" stroke-miterlimit="10" x1="439.236" y1="738.914" x2="449.236" y2="626.914"/>
	<line fill="none" stroke="#FFFFFF" stroke-miterlimit="10" x1="449.236" y1="626.914" x2="759.236" y2="728.914"/>
	<line fill="none" stroke="#FFFFFF" stroke-miterlimit="10" x1="759.236" y1="728.914" x2="533.236" y2="807.914"/>
	<line fill="none" stroke="#FFFFFF" stroke-miterlimit="10" x1="533.236" y1="807.914" x2="769.236" y2="844.914"/>
	<line fill="none" stroke="#FFFFFF" stroke-miterlimit="10" x1="769.236" y1="844.914" x2="683.236" y2="1001.914"/>
	<line fill="none" stroke="#FFFFFF" stroke-miterlimit="10" x1="683.236" y1="1001.914" x2="864.236" y2="1009.914"/>
	<line fill="none" stroke="#FFFFFF" stroke-miterlimit="10" x1="864.236" y1="1009.914" x2="934.236" y2="909.247"/>
	<line fill="none" stroke="#FFFFFF" stroke-miterlimit="10" x1="934.236" y1="909.247" x2="769.236" y2="844.914"/>
	<line fill="none" stroke="#FFFFFF" stroke-miterlimit="10" x1="769.236" y1="844.914" x2="864.236" y2="923.414"/>
	<line fill="none" stroke="#FFFFFF" stroke-miterlimit="10" x1="864.236" y1="923.414" x2="934.236" y2="909.247"/>
	<line fill="none" stroke="#FFFFFF" stroke-miterlimit="10" x1="864.236" y1="923.414" x2="864.236" y2="1009.914"/>
	<line fill="none" stroke="#FFFFFF" stroke-miterlimit="10" x1="864.236" y1="923.414" x2="683.236" y2="1001.914"/>
	<line fill="none" stroke="#FFFFFF" stroke-miterlimit="10" x1="759.236" y1="728.914" x2="764.236" y2="605.914"/>
	<line fill="none" stroke="#FFFFFF" stroke-miterlimit="10" x1="764.236" y1="605.914" x2="838.236" y2="676.414"/>
	<line fill="none" stroke="#FFFFFF" stroke-miterlimit="10" x1="838.236" y1="676.414" x2="812.236" y2="753.914"/>
	<line fill="none" stroke="#FFFFFF" stroke-miterlimit="10" x1="812.236" y1="758.914" x2="759.236" y2="728.914"/>
	<line fill="none" stroke="#FFFFFF" stroke-miterlimit="10" x1="759.236" y1="728.914" x2="785.736" y2="696.414"/>
	<line fill="none" stroke="#FFFFFF" stroke-miterlimit="10" x1="785.736" y1="696.414" x2="764.236" y2="610.914"/>
	<line fill="none" stroke="#FFFFFF" stroke-miterlimit="10" x1="785.736" y1="696.414" x2="838.236" y2="676.414"/>
	<line fill="none" stroke="#FFFFFF" stroke-miterlimit="10" x1="785.736" y1="696.414" x2="812.236" y2="758.914"/>
	<line fill="none" stroke="#FFFFFF" stroke-miterlimit="10" x1="254.236" y1="712.664" x2="248.236" y2="676.414"/>
	<line fill="none" stroke="#FFFFFF" stroke-miterlimit="10" x1="254.236" y1="712.664" x2="201.236" y2="738.914"/>
	<line fill="none" stroke="#FFFFFF" stroke-miterlimit="10" x1="254.236" y1="712.664" x2="258.236" y2="785.914"/>
	<line fill="none" stroke="#FFFFFF" stroke-miterlimit="10" x1="254.236" y1="712.664" x2="331.007" y2="703.499"/>
	<line fill="none" stroke="#FFFFFF" stroke-miterlimit="10" x1="513.236" y1="570.914" x2="628.236" y2="532.914"/>
	<line fill="none" stroke="#FFFFFF" stroke-miterlimit="10" x1="628.236" y1="532.914" x2="573.569" y2="463.914"/>
	<line fill="none" stroke="#FFFFFF" stroke-miterlimit="10" x1="573.569" y1="463.914" x2="404.902" y2="520.914"/>
	<line fill="none" stroke="#FFFFFF" stroke-miterlimit="10" x1="404.902" y1="520.914" x2="513.236" y2="570.914"/>
	<line fill="none" stroke="#FFFFFF" stroke-miterlimit="10" x1="513.236" y1="575.914" x2="506.902" y2="540.914"/>
	<line fill="none" stroke="#FFFFFF" stroke-miterlimit="10" x1="506.902" y1="540.914" x2="404.902" y2="520.914"/>
	<line fill="none" stroke="#FFFFFF" stroke-miterlimit="10" x1="506.902" y1="540.914" x2="573.569" y2="463.914"/>
	<line fill="none" stroke="#FFFFFF" stroke-miterlimit="10" x1="506.902" y1="540.914" x2="628.236" y2="532.914"/>
	<line fill="none" stroke="#FFFFFF" stroke-miterlimit="10" x1="864.236" y1="1009.914" x2="875.438" y2="1270.979"/>
	<line fill="none" stroke="#FFFFFF" stroke-miterlimit="10" x1="864.236" y1="1009.914" x2="922.236" y2="1161.414"/>
	<line fill="none" stroke="#FFFFFF" stroke-miterlimit="10" x1="922.236" y1="1161.414" x2="889.692" y2="1270.979"/>
	<line fill="none" stroke="#FFFFFF" stroke-miterlimit="10" x1="934.236" y1="909.247" x2="1112.236" y2="682.914"/>
	<line fill="none" stroke="#FFFFFF" stroke-miterlimit="10" x1="934.236" y1="909.247" x2="996.236" y2="955.747"/>
	<line fill="none" stroke="#FFFFFF" stroke-miterlimit="10" x1="996.236" y1="955.747" x2="1112.236" y2="682.914"/>
	<line fill="none" stroke="#FFFFFF" stroke-miterlimit="10" x1="980.236" y1="902.247" x2="1112.236" y2="682.914"/>
	<line fill="none" stroke="#FFFFFF" stroke-miterlimit="10" x1="980.236" y1="902.247" x2="934.236" y2="909.247"/>
	<line fill="none" stroke="#FFFFFF" stroke-miterlimit="10" x1="980.236" y1="902.247" x2="996.236" y2="963.955"/>
	<line fill="none" stroke="#FFFFFF" stroke-miterlimit="10" x1="838.236" y1="676.414" x2="1014.236" y2="446.914"/>
	<line fill="none" stroke="#FFFFFF" stroke-miterlimit="10" x1="1014.236" y1="446.914" x2="816.736" y2="326.914"/>
	<line fill="none" stroke="#FFFFFF" stroke-miterlimit="10" x1="816.736" y1="326.914" x2="918.881" y2="17.129"/>
	<line fill="none" stroke="#FFFFFF" stroke-miterlimit="10" x1="918.881" y1="17.129" x2="1310.236" y2="288.914"/>
	<line fill="none" stroke="#FFFFFF" stroke-miterlimit="10" x1="1310.236" y1="288.914" x2="816.736" y2="326.914"/>
	<line fill="none" stroke="#FFFFFF" stroke-miterlimit="10" x1="877.236" y1="288.914" x2="918.881" y2="17.129"/>
	<line fill="none" stroke="#FFFFFF" stroke-miterlimit="10" x1="877.236" y1="288.914" x2="816.736" y2="326.914"/>
	<line fill="none" stroke="#FFFFFF" stroke-miterlimit="10" x1="877.236" y1="288.914" x2="1310.236" y2="288.914"/>
	<line fill="none" stroke="#FFFFFF" stroke-miterlimit="10" x1="877.236" y1="288.914" x2="1093.736" y2="138.562"/>
	<line fill="none" stroke="#FFFFFF" stroke-miterlimit="10" x1="1014.236" y1="446.914" x2="1102.736" y2="575.914"/>
	<line fill="none" stroke="#FFFFFF" stroke-miterlimit="10" x1="1014.236" y1="446.914" x2="1152.236" y2="386.914"/>
	<line fill="none" stroke="#FFFFFF" stroke-miterlimit="10" x1="1014.236" y1="446.914" x2="1132.311" y2="478.164"/>
	<line fill="none" stroke="#FFFFFF" stroke-miterlimit="10" x1="1014.236" y1="446.914" x2="393.569" y2="288.914"/>
	<line fill="none" stroke="#FFFFFF" stroke-miterlimit="10" x1="393.569" y1="288.914" x2="332.007" y2="174.914"/>
	<line fill="none" stroke="#FFFFFF" stroke-miterlimit="10" x1="332.007" y1="174.914" x2="152.236" y2="367.914"/>
	<line fill="none" stroke="#FFFFFF" stroke-miterlimit="10" x1="152.236" y1="367.914" x2="352.236" y2="426.914"/>
	<line fill="none" stroke="#FFFFFF" stroke-miterlimit="10" x1="352.236" y1="426.914" x2="393.569" y2="288.914"/>
	<line fill="none" stroke="#FFFFFF" stroke-miterlimit="10" x1="343.736" y1="307.914" x2="332.007" y2="174.914"/>
	<line fill="none" stroke="#FFFFFF" stroke-miterlimit="10" x1="343.736" y1="307.914" x2="152.236" y2="367.914"/>
	<line fill="none" stroke="#FFFFFF" stroke-miterlimit="10" x1="343.736" y1="307.914" x2="352.236" y2="426.914"/>
	<line fill="none" stroke="#FFFFFF" stroke-miterlimit="10" x1="343.736" y1="307.914" x2="393.569" y2="288.914"/>
	<line fill="none" stroke="#FFFFFF" stroke-miterlimit="10" x1="152.236" y1="367.914" x2="26.236" y2="774.164"/>
	<line fill="none" stroke="#FFFFFF" stroke-miterlimit="10" x1="26.236" y1="774.164" x2="213.986" y2="942.247"/>
	<line fill="none" stroke="#FFFFFF" stroke-miterlimit="10" x1="213.986" y1="942.247" x2="225.736" y2="1112.914"/>
	<line fill="none" stroke="#FFFFFF" stroke-miterlimit="10" x1="225.736" y1="1112.914" x2="55.236" y2="1064.914"/>
	<line fill="none" stroke="#FFFFFF" stroke-miterlimit="10" x1="55.236" y1="1064.914" x2="213.986" y2="942.247"/>
	<line fill="none" stroke="#FFFFFF" stroke-miterlimit="10" x1="201.236" y1="1011.664" x2="213.986" y2="942.247"/>
	<line fill="none" stroke="#FFFFFF" stroke-miterlimit="10" x1="201.236" y1="1011.664" x2="55.236" y2="1064.914"/>
	<line fill="none" stroke="#FFFFFF" stroke-miterlimit="10" x1="201.236" y1="1011.664" x2="225.736" y2="1112.914"/>
	<line fill="none" stroke="#FFFFFF" stroke-miterlimit="10" x1="26.236" y1="774.164" x2="248.236" y2="676.414"/>
	<line fill="none" stroke="#FFFFFF" stroke-miterlimit="10" x1="352.236" y1="426.914" x2="404.902" y2="520.914"/>
	<line fill="none" stroke="#FFFFFF" stroke-miterlimit="10" x1="352.236" y1="426.914" x2="248.236" y2="676.414"/>
	<line fill="none" stroke="#FFFFFF" stroke-miterlimit="10" x1="352.236" y1="426.914" x2="331.007" y2="703.499"/>
	<line fill="none" stroke="#FFFFFF" stroke-miterlimit="10" x1="573.569" y1="463.914" x2="1014.236" y2="446.914"/>
	<line fill="none" stroke="#FFFFFF" stroke-miterlimit="10" x1="382.236" y1="923.247" x2="255.741" y2="1270.979"/>
	<line fill="none" stroke="#FFFFFF" stroke-miterlimit="10" x1="441.406" y1="1270.979" x2="311.361" y2="1126.914"/>
	<line fill="none" stroke="#FFFFFF" stroke-miterlimit="10" x1="311.361" y1="1126.914" x2="331.007" y2="1202.914"/>
	<line fill="none" stroke="#FFFFFF" stroke-miterlimit="10" x1="364.867" y1="1161.768" x2="274.995" y2="1270.979"/>
	<line fill="none" stroke="#FFFFFF" stroke-miterlimit="10" x1="331.007" y1="1202.914" x2="436.294" y2="1270.979"/>
	<line fill="none" stroke="#FFFFFF" stroke-miterlimit="10" x1="1152.236" y1="386.914" x2="1132.311" y2="478.164"/>
	<line fill="none" stroke="#FFFFFF" stroke-miterlimit="10" x1="1132.311" y1="478.164" x2="1102.736" y2="572.914"/>
</g>
<g id="Calque_3">
	
		<line opacity="0.6" fill="none" stroke="#FFFFFF" stroke-width="0.5" stroke-miterlimit="10" enable-background="new    " x1="514.236" y1="570.914" x2="554.236" y2="682.914"/>
	
		<line opacity="0.6" fill="none" stroke="#FFFFFF" stroke-width="0.5" stroke-miterlimit="10" enable-background="new    " x1="554.236" y1="682.914" x2="629.236" y2="821.914"/>
	
		<line opacity="0.6" fill="none" stroke="#FFFFFF" stroke-width="0.5" stroke-miterlimit="10" enable-background="new    " x1="629.236" y1="821.914" x2="585.236" y2="708.082"/>
	
		<line opacity="0.6" fill="none" stroke="#FFFFFF" stroke-width="0.5" stroke-miterlimit="10" enable-background="new    " x1="585.236" y1="708.082" x2="514.236" y2="570.914"/>
	
		<line opacity="0.6" fill="none" stroke="#FFFFFF" stroke-width="0.5" stroke-miterlimit="10" enable-background="new    " x1="534.236" y1="807.914" x2="629.236" y2="758.914"/>
	
		<line opacity="0.6" fill="none" stroke="#FFFFFF" stroke-width="0.5" stroke-miterlimit="10" enable-background="new    " x1="629.236" y1="758.914" x2="760.236" y2="728.914"/>
	
		<line opacity="0.6" fill="none" stroke="#FFFFFF" stroke-width="0.5" stroke-miterlimit="10" enable-background="new    " x1="760.236" y1="728.914" x2="581.736" y2="775.914"/>
	
		<line opacity="0.6" fill="none" stroke="#FFFFFF" stroke-width="0.5" stroke-miterlimit="10" enable-background="new    " x1="581.736" y1="775.914" x2="534.236" y2="807.914"/>
	
		<line opacity="0.6" fill="none" stroke="#FFFFFF" stroke-width="0.5" stroke-miterlimit="10" enable-background="new    " x1="770.236" y1="844.914" x2="684.236" y2="959.58"/>
	
		<line opacity="0.6" fill="none" stroke="#FFFFFF" stroke-width="0.5" stroke-miterlimit="10" enable-background="new    " x1="684.236" y1="959.58" x2="684.236" y2="1001.914"/>
	
		<line opacity="0.6" fill="none" stroke="#FFFFFF" stroke-width="0.5" stroke-miterlimit="10" enable-background="new    " x1="684.236" y1="1001.914" x2="706.236" y2="916.33"/>
	
		<line opacity="0.6" fill="none" stroke="#FFFFFF" stroke-width="0.5" stroke-miterlimit="10" enable-background="new    " x1="706.236" y1="909.247" x2="770.236" y2="844.914"/>
	
		<line opacity="0.6" fill="none" stroke="#FFFFFF" stroke-width="0.5" stroke-miterlimit="10" enable-background="new    " x1="770.236" y1="844.914" x2="831.236" y2="909.247"/>
	
		<line opacity="0.6" fill="none" stroke="#FFFFFF" stroke-width="0.5" stroke-miterlimit="10" enable-background="new    " x1="831.236" y1="909.247" x2="865.236" y2="923.414"/>
	
		<line opacity="0.6" fill="none" stroke="#FFFFFF" stroke-width="0.5" stroke-miterlimit="10" enable-background="new    " x1="865.236" y1="923.414" x2="852.736" y2="995.914"/>
	
		<line opacity="0.6" fill="none" stroke="#FFFFFF" stroke-width="0.5" stroke-miterlimit="10" enable-background="new    " x1="852.736" y1="995.914" x2="865.236" y2="1009.914"/>
	
		<line opacity="0.6" fill="none" stroke="#FFFFFF" stroke-width="0.5" stroke-miterlimit="10" enable-background="new    " x1="865.236" y1="923.414" x2="775.986" y2="858.581"/>
	
		<line opacity="0.6" fill="none" stroke="#FFFFFF" stroke-width="0.5" stroke-miterlimit="10" enable-background="new    " x1="775.986" y1="858.581" x2="770.236" y2="844.914"/>
	
		<line opacity="0.6" fill="none" stroke="#FFFFFF" stroke-width="0.5" stroke-miterlimit="10" enable-background="new    " x1="786.736" y1="696.414" x2="765.236" y2="712.664"/>
	
		<line opacity="0.6" fill="none" stroke="#FFFFFF" stroke-width="0.5" stroke-miterlimit="10" enable-background="new    " x1="765.236" y1="712.664" x2="760.236" y2="728.914"/>
	
		<line opacity="0.6" fill="none" stroke="#FFFFFF" stroke-width="0.5" stroke-miterlimit="10" enable-background="new    " x1="786.736" y1="696.414" x2="786.736" y2="725.789"/>
	
		<line opacity="0.6" fill="none" stroke="#FFFFFF" stroke-width="0.5" stroke-miterlimit="10" enable-background="new    " x1="786.736" y1="725.789" x2="813.236" y2="758.914"/>
	
		<line opacity="0.6" fill="none" stroke="#FFFFFF" stroke-width="0.5" stroke-miterlimit="10" enable-background="new    " x1="813.236" y1="758.914" x2="782.236" y2="711.102"/>
	
		<line opacity="0.6" fill="none" stroke="#FFFFFF" stroke-width="0.5" stroke-miterlimit="10" enable-background="new    " x1="782.236" y1="711.102" x2="791.658" y2="694.539"/>
	
		<line opacity="0.6" fill="none" stroke="#FFFFFF" stroke-width="0.5" stroke-miterlimit="10" enable-background="new    " x1="791.658" y1="694.539" x2="791.658" y2="676.414"/>
	
		<line opacity="0.6" fill="none" stroke="#FFFFFF" stroke-width="0.5" stroke-miterlimit="10" enable-background="new    " x1="791.658" y1="676.414" x2="765.236" y2="605.914"/>
	
		<line opacity="0.6" fill="none" stroke="#FFFFFF" stroke-width="0.5" stroke-miterlimit="10" enable-background="new    " x1="760.236" y1="728.914" x2="660.236" y2="676.414"/>
	
		<line opacity="0.6" fill="none" stroke="#FFFFFF" stroke-width="0.5" stroke-miterlimit="10" enable-background="new    " x1="660.236" y1="676.414" x2="450.236" y2="626.914"/>
	
		<line opacity="0.6" fill="none" stroke="#FFFFFF" stroke-width="0.5" stroke-miterlimit="10" enable-background="new    " x1="514.236" y1="570.914" x2="493.902" y2="626.914"/>
	
		<line opacity="0.6" fill="none" stroke="#FFFFFF" stroke-width="0.5" stroke-miterlimit="10" enable-background="new    " x1="493.902" y1="626.914" x2="500.902" y2="660.914"/>
	
		<line opacity="0.6" fill="none" stroke="#FFFFFF" stroke-width="0.5" stroke-miterlimit="10" enable-background="new    " x1="935.236" y1="909.247" x2="877.236" y2="935.247"/>
	
		<line opacity="0.6" fill="none" stroke="#FFFFFF" stroke-width="0.5" stroke-miterlimit="10" enable-background="new    " x1="877.236" y1="935.247" x2="865.236" y2="923.414"/>
	
		<line opacity="0.6" fill="none" stroke="#FFFFFF" stroke-width="0.5" stroke-miterlimit="10" enable-background="new    " x1="629.236" y1="821.914" x2="450.236" y2="880.581"/>
	
		<line opacity="0.6" fill="none" stroke="#FFFFFF" stroke-width="0.5" stroke-miterlimit="10" enable-background="new    " x1="450.236" y1="880.581" x2="405.902" y2="880.581"/>
	
		<line opacity="0.6" fill="none" stroke="#FFFFFF" stroke-width="0.5" stroke-miterlimit="10" enable-background="new    " x1="405.902" y1="880.581" x2="377.236" y2="909.247"/>
	
		<line opacity="0.6" fill="none" stroke="#FFFFFF" stroke-width="0.5" stroke-miterlimit="10" enable-background="new    " x1="377.236" y1="909.247" x2="383.236" y2="923.247"/>
	
		<line opacity="0.6" fill="none" stroke="#FFFFFF" stroke-width="0.5" stroke-miterlimit="10" enable-background="new    " x1="383.236" y1="923.247" x2="428.069" y2="988.247"/>
	
		<line opacity="0.6" fill="none" stroke="#FFFFFF" stroke-width="0.5" stroke-miterlimit="10" enable-background="new    " x1="428.069" y1="988.247" x2="423.902" y2="1023.247"/>
	
		<line opacity="0.6" fill="none" stroke="#FFFFFF" stroke-width="0.5" stroke-miterlimit="10" enable-background="new    " x1="423.902" y1="1023.247" x2="440.236" y2="1023.247"/>
	
		<line opacity="0.6" fill="none" stroke="#FFFFFF" stroke-width="0.5" stroke-miterlimit="10" enable-background="new    " x1="440.236" y1="1023.247" x2="493.902" y2="1042.581"/>
	
		<line opacity="0.6" fill="none" stroke="#FFFFFF" stroke-width="0.5" stroke-miterlimit="10" enable-background="new    " x1="493.902" y1="1042.581" x2="493.902" y2="980.747"/>
	
		<line opacity="0.6" fill="none" stroke="#FFFFFF" stroke-width="0.5" stroke-miterlimit="10" enable-background="new    " x1="493.902" y1="980.747" x2="507.902" y2="961.247"/>
	
		<line opacity="0.6" fill="none" stroke="#FFFFFF" stroke-width="0.5" stroke-miterlimit="10" enable-background="new    " x1="507.902" y1="961.247" x2="490.236" y2="995.914"/>
	
		<line opacity="0.6" fill="none" stroke="#FFFFFF" stroke-width="0.5" stroke-miterlimit="10" enable-background="new    " x1="490.236" y1="995.914" x2="493.902" y2="1042.581"/>
	
		<line opacity="0.6" fill="none" stroke="#FFFFFF" stroke-width="0.5" stroke-miterlimit="10" enable-background="new    " x1="574.569" y1="1015.247" x2="526.236" y2="966.664"/>
	
		<line opacity="0.6" fill="none" stroke="#FFFFFF" stroke-width="0.5" stroke-miterlimit="10" enable-background="new    " x1="526.236" y1="966.664" x2="507.902" y2="961.247"/>
	
		<line opacity="0.6" fill="none" stroke="#FFFFFF" stroke-width="0.5" stroke-miterlimit="10" enable-background="new    " x1="507.902" y1="961.247" x2="428.069" y2="923.414"/>
	
		<line opacity="0.6" fill="none" stroke="#FFFFFF" stroke-width="0.5" stroke-miterlimit="10" enable-background="new    " x1="428.069" y1="923.414" x2="383.236" y2="923.247"/>
	
		<line opacity="0.6" fill="none" stroke="#FFFFFF" stroke-width="0.5" stroke-miterlimit="10" enable-background="new    " x1="332.007" y1="703.499" x2="273.236" y2="720.789"/>
	
		<line opacity="0.6" fill="none" stroke="#FFFFFF" stroke-width="0.5" stroke-miterlimit="10" enable-background="new    " x1="273.236" y1="720.789" x2="255.236" y2="712.664"/>
	
		<line opacity="0.6" fill="none" stroke="#FFFFFF" stroke-width="0.5" stroke-miterlimit="10" enable-background="new    " x1="255.236" y1="712.664" x2="225.736" y2="716.727"/>
	
		<line opacity="0.6" fill="none" stroke="#FFFFFF" stroke-width="0.5" stroke-miterlimit="10" enable-background="new    " x1="225.736" y1="716.727" x2="202.236" y2="738.914"/>
	
		<line opacity="0.6" fill="none" stroke="#FFFFFF" stroke-width="0.5" stroke-miterlimit="10" enable-background="new    " x1="202.236" y1="738.914" x2="240.486" y2="708.082"/>
	
		<line opacity="0.6" fill="none" stroke="#FFFFFF" stroke-width="0.5" stroke-miterlimit="10" enable-background="new    " x1="240.486" y1="708.082" x2="255.236" y2="712.664"/>
	
		<line opacity="0.6" fill="none" stroke="#FFFFFF" stroke-width="0.5" stroke-miterlimit="10" enable-background="new    " x1="249.236" y1="676.414" x2="264.236" y2="686.414"/>
	
		<line opacity="0.6" fill="none" stroke="#FFFFFF" stroke-width="0.5" stroke-miterlimit="10" enable-background="new    " x1="264.236" y1="686.414" x2="332.007" y2="703.499"/>
	
		<line opacity="0.6" fill="none" stroke="#FFFFFF" stroke-width="0.5" stroke-miterlimit="10" enable-background="new    " x1="332.007" y1="703.499" x2="264.236" y2="753.914"/>
	
		<line opacity="0.6" fill="none" stroke="#FFFFFF" stroke-width="0.5" stroke-miterlimit="10" enable-background="new    " x1="264.236" y1="753.914" x2="259.236" y2="785.914"/>
	
		<line opacity="0.6" fill="none" stroke="#FFFFFF" stroke-width="0.5" stroke-miterlimit="10" enable-background="new    " x1="259.236" y1="785.914" x2="247.861" y2="762.414"/>
	
		<line opacity="0.6" fill="none" stroke="#FFFFFF" stroke-width="0.5" stroke-miterlimit="10" enable-background="new    " x1="247.861" y1="762.414" x2="202.236" y2="738.914"/>
	
		<line opacity="0.6" fill="none" stroke="#FFFFFF" stroke-width="0.5" stroke-miterlimit="10" enable-background="new    " x1="450.236" y1="626.914" x2="456.902" y2="720.789"/>
	
		<line opacity="0.6" fill="none" stroke="#FFFFFF" stroke-width="0.5" stroke-miterlimit="10" enable-background="new    " x1="456.902" y1="720.789" x2="440.236" y2="738.914"/>
	
		<line opacity="0.6" fill="none" stroke="#FFFFFF" stroke-width="0.5" stroke-miterlimit="10" enable-background="new    " x1="440.236" y1="738.914" x2="421.569" y2="723.498"/>
	
		<line opacity="0.6" fill="none" stroke="#FFFFFF" stroke-width="0.5" stroke-miterlimit="10" enable-background="new    " x1="421.569" y1="723.498" x2="332.007" y2="703.499"/>
	
		<line opacity="0.6" fill="none" stroke="#FFFFFF" stroke-width="0.5" stroke-miterlimit="10" enable-background="new    " x1="405.902" y1="520.914" x2="511.069" y2="502.414"/>
	
		<line opacity="0.6" fill="none" stroke="#FFFFFF" stroke-width="0.5" stroke-miterlimit="10" enable-background="new    " x1="511.069" y1="502.414" x2="574.569" y2="463.914"/>
	
		<line opacity="0.6" fill="none" stroke="#FFFFFF" stroke-width="0.5" stroke-miterlimit="10" enable-background="new    " x1="574.569" y1="463.914" x2="482.236" y2="511.664"/>
	
		<line opacity="0.6" fill="none" stroke="#FFFFFF" stroke-width="0.5" stroke-miterlimit="10" enable-background="new    " x1="482.236" y1="511.664" x2="405.902" y2="520.914"/>
	
		<line opacity="0.6" fill="none" stroke="#FFFFFF" stroke-width="0.5" stroke-miterlimit="10" enable-background="new    " x1="574.569" y1="463.914" x2="562.569" y2="492.414"/>
	
		<line opacity="0.6" fill="none" stroke="#FFFFFF" stroke-width="0.5" stroke-miterlimit="10" enable-background="new    " x1="562.569" y1="492.414" x2="507.902" y2="540.914"/>
	
		<line opacity="0.6" fill="none" stroke="#FFFFFF" stroke-width="0.5" stroke-miterlimit="10" enable-background="new    " x1="507.902" y1="540.914" x2="555.236" y2="511.664"/>
	
		<line opacity="0.6" fill="none" stroke="#FFFFFF" stroke-width="0.5" stroke-miterlimit="10" enable-background="new    " x1="555.236" y1="511.664" x2="574.569" y2="463.914"/>
	
		<line opacity="0.6" fill="none" stroke="#FFFFFF" stroke-width="0.5" stroke-miterlimit="10" enable-background="new    " x1="507.902" y1="540.914" x2="499.069" y2="551.914"/>
	
		<line opacity="0.6" fill="none" stroke="#FFFFFF" stroke-width="0.5" stroke-miterlimit="10" enable-background="new    " x1="499.069" y1="551.914" x2="514.236" y2="570.914"/>
	
		<line opacity="0.6" fill="none" stroke="#FFFFFF" stroke-width="0.5" stroke-miterlimit="10" enable-background="new    " x1="629.236" y1="532.914" x2="607.236" y2="520.914"/>
	
		<line opacity="0.6" fill="none" stroke="#FFFFFF" stroke-width="0.5" stroke-miterlimit="10" enable-background="new    " x1="607.236" y1="520.914" x2="507.902" y2="540.914"/>
	
		<line opacity="0.6" fill="none" stroke="#FFFFFF" stroke-width="0.5" stroke-miterlimit="10" enable-background="new    " x1="1014.236" y1="446.914" x2="507.902" y2="288.914"/>
	
		<line opacity="0.6" fill="none" stroke="#FFFFFF" stroke-width="0.5" stroke-miterlimit="10" enable-background="new    " x1="507.902" y1="288.914" x2="393.569" y2="288.914"/>
	
		<line opacity="0.6" fill="none" stroke="#FFFFFF" stroke-width="0.5" stroke-miterlimit="10" enable-background="new    " x1="393.569" y1="288.914" x2="871.236" y2="386.914"/>
	
		<line opacity="0.6" fill="none" stroke="#FFFFFF" stroke-width="0.5" stroke-miterlimit="10" enable-background="new    " x1="871.236" y1="386.914" x2="1014.236" y2="446.914"/>
	
		<line opacity="0.6" fill="none" stroke="#FFFFFF" stroke-width="0.5" stroke-miterlimit="10" enable-background="new    " x1="1014.236" y1="446.914" x2="1122.904" y2="420.914"/>
	
		<line opacity="0.6" fill="none" stroke="#FFFFFF" stroke-width="0.5" stroke-miterlimit="10" enable-background="new    " x1="816.736" y1="326.914" x2="913.095" y2="54.89"/>
	
		<line opacity="0.6" fill="none" stroke="#FFFFFF" stroke-width="0.5" stroke-miterlimit="10" enable-background="new    " x1="816.736" y1="326.914" x2="913.096" y2="54.887"/>
	
		<line opacity="0.6" fill="none" stroke="#FFFFFF" stroke-width="0.5" stroke-miterlimit="10" enable-background="new    " x1="877.236" y1="288.914" x2="838.236" y2="307.914"/>
	
		<line opacity="0.6" fill="none" stroke="#FFFFFF" stroke-width="0.5" stroke-miterlimit="10" enable-background="new    " x1="838.236" y1="307.914" x2="816.736" y2="326.914"/>
	
		<line opacity="0.6" fill="none" stroke="#FFFFFF" stroke-width="0.5" stroke-miterlimit="10" enable-background="new    " x1="877.236" y1="288.914" x2="988.236" y2="174.914"/>
	
		<line opacity="0.6" fill="none" stroke="#FFFFFF" stroke-width="0.5" stroke-miterlimit="10" enable-background="new    " x1="988.236" y1="174.914" x2="1051.913" y2="109.517"/>
	
		<line opacity="0.6" fill="none" stroke="#FFFFFF" stroke-width="0.5" stroke-miterlimit="10" enable-background="new    " x1="877.236" y1="288.914" x2="1023.236" y2="271.414"/>
	
		<line opacity="0.6" fill="none" stroke="#FFFFFF" stroke-width="0.5" stroke-miterlimit="10" enable-background="new    " x1="1014.236" y1="271.414" x2="1310.236" y2="288.914"/>
	
		<line opacity="0.6" fill="none" stroke="#FFFFFF" stroke-width="0.5" stroke-miterlimit="10" enable-background="new    " x1="816.736" y1="326.914" x2="950.236" y2="326.914"/>
	
		<line opacity="0.6" fill="none" stroke="#FFFFFF" stroke-width="0.5" stroke-miterlimit="10" enable-background="new    " x1="950.236" y1="326.914" x2="1310.236" y2="288.914"/>
	
		<line opacity="0.6" fill="none" stroke="#FFFFFF" stroke-width="0.5" stroke-miterlimit="10" enable-background="new    " x1="393.569" y1="288.914" x2="319.839" y2="298.414"/>
	
		<line opacity="0.6" fill="none" stroke="#FFFFFF" stroke-width="0.5" stroke-miterlimit="10" enable-background="new    " x1="319.839" y1="298.414" x2="152.236" y2="367.914"/>
	
		<line opacity="0.6" fill="none" stroke="#FFFFFF" stroke-width="0.5" stroke-miterlimit="10" enable-background="new    " x1="332.007" y1="174.914" x2="331.007" y2="271.414"/>
	
		<line opacity="0.6" fill="none" stroke="#FFFFFF" stroke-width="0.5" stroke-miterlimit="10" enable-background="new    " x1="331.007" y1="271.414" x2="352.236" y2="426.914"/>
	
		<line opacity="0.6" fill="none" stroke="#FFFFFF" stroke-width="0.5" stroke-miterlimit="10" enable-background="new    " x1="352.236" y1="426.914" x2="242.122" y2="651.664"/>
	
		<line opacity="0.6" fill="none" stroke="#FFFFFF" stroke-width="0.5" stroke-miterlimit="10" enable-background="new    " x1="242.122" y1="651.664" x2="249.236" y2="676.414"/>
	
		<line opacity="0.6" fill="none" stroke="#FFFFFF" stroke-width="0.5" stroke-miterlimit="10" enable-background="new    " x1="249.236" y1="676.414" x2="202.236" y2="677.914"/>
	
		<line opacity="0.6" fill="none" stroke="#FFFFFF" stroke-width="0.5" stroke-miterlimit="10" enable-background="new    " x1="202.236" y1="677.914" x2="26.236" y2="774.164"/>
	
		<line opacity="0.6" fill="none" stroke="#FFFFFF" stroke-width="0.5" stroke-miterlimit="10" enable-background="new    " x1="26.236" y1="774.164" x2="40.853" y2="749.289"/>
	
		<line opacity="0.6" fill="none" stroke="#FFFFFF" stroke-width="0.5" stroke-miterlimit="10" enable-background="new    " x1="40.853" y1="749.289" x2="249.236" y2="676.414"/>
	
		<line opacity="0.6" fill="none" stroke="#FFFFFF" stroke-width="0.5" stroke-miterlimit="10" enable-background="new    " x1="26.236" y1="774.164" x2="152.236" y2="426.914"/>
	
		<line opacity="0.6" fill="none" stroke="#FFFFFF" stroke-width="0.5" stroke-miterlimit="10" enable-background="new    " x1="152.236" y1="426.914" x2="152.236" y2="367.914"/>
	
		<line opacity="0.6" fill="none" stroke="#FFFFFF" stroke-width="0.5" stroke-miterlimit="10" enable-background="new    " x1="152.236" y1="367.914" x2="134.611" y2="502.414"/>
	
		<line opacity="0.6" fill="none" stroke="#FFFFFF" stroke-width="0.5" stroke-miterlimit="10" enable-background="new    " x1="134.611" y1="502.414" x2="26.236" y2="774.164"/>
	
		<line opacity="0.6" fill="none" stroke="#FFFFFF" stroke-width="0.5" stroke-miterlimit="10" enable-background="new    " x1="213.986" y1="942.247" x2="177.346" y2="942.247"/>
	
		<line opacity="0.6" fill="none" stroke="#FFFFFF" stroke-width="0.5" stroke-miterlimit="10" enable-background="new    " x1="177.346" y1="942.247" x2="55.236" y2="1064.914"/>
	
		<line opacity="0.6" fill="none" stroke="#FFFFFF" stroke-width="0.5" stroke-miterlimit="10" enable-background="new    " x1="55.236" y1="1064.914" x2="72.352" y2="1027.58"/>
	
		<line opacity="0.6" fill="none" stroke="#FFFFFF" stroke-width="0.5" stroke-miterlimit="10" enable-background="new    " x1="72.352" y1="1027.58" x2="213.986" y2="942.247"/>
	
		<line opacity="0.6" fill="none" stroke="#FFFFFF" stroke-width="0.5" stroke-miterlimit="10" enable-background="new    " x1="213.986" y1="942.247" x2="195.666" y2="1002.914"/>
	
		<line opacity="0.6" fill="none" stroke="#FFFFFF" stroke-width="0.5" stroke-miterlimit="10" enable-background="new    " x1="195.666" y1="1002.914" x2="201.236" y2="1011.664"/>
	
		<line opacity="0.6" fill="none" stroke="#FFFFFF" stroke-width="0.5" stroke-miterlimit="10" enable-background="new    " x1="201.236" y1="1011.664" x2="195.666" y2="1037.414"/>
	
		<line opacity="0.6" fill="none" stroke="#FFFFFF" stroke-width="0.5" stroke-miterlimit="10" enable-background="new    " x1="195.666" y1="1037.414" x2="225.736" y2="1112.914"/>
	
		<line opacity="0.6" fill="none" stroke="#FFFFFF" stroke-width="0.5" stroke-miterlimit="10" enable-background="new    " x1="311.361" y1="1126.914" x2="302.622" y2="1164.914"/>
	
		<line opacity="0.6" fill="none" stroke="#FFFFFF" stroke-width="0.5" stroke-miterlimit="10" enable-background="new    " x1="302.622" y1="1164.914" x2="258.092" y2="1270.979"/>
	
		<line opacity="0.6" fill="none" stroke="#FFFFFF" stroke-width="0.5" stroke-miterlimit="10" enable-background="new    " x1="240.486" y1="1270.979" x2="311.361" y2="1126.914"/>
	
		<line opacity="0.6" fill="none" stroke="#FFFFFF" stroke-width="0.5" stroke-miterlimit="10" enable-background="new    " x1="311.361" y1="1126.914" x2="311.361" y2="1198.947"/>
	
		<line opacity="0.6" fill="none" stroke="#FFFFFF" stroke-width="0.5" stroke-miterlimit="10" enable-background="new    " x1="311.361" y1="1198.947" x2="331.007" y2="1202.914"/>
	
		<line opacity="0.6" fill="none" stroke="#FFFFFF" stroke-width="0.5" stroke-miterlimit="10" enable-background="new    " x1="331.007" y1="1202.914" x2="341.236" y2="1237.164"/>
	
		<line opacity="0.6" fill="none" stroke="#FFFFFF" stroke-width="0.5" stroke-miterlimit="10" enable-background="new    " x1="341.236" y1="1237.164" x2="296.262" y2="1270.979"/>
	
		<line opacity="0.6" fill="none" stroke="#FFFFFF" stroke-width="0.5" stroke-miterlimit="10" enable-background="new    " x1="864.236" y1="1015.247" x2="858.986" y2="1255.688"/>
	
		<line opacity="0.6" fill="none" stroke="#FFFFFF" stroke-width="0.5" stroke-miterlimit="10" enable-background="new    " x1="858.986" y1="1255.688" x2="863.862" y2="1270.979"/>
	
		<line opacity="0.6" fill="none" stroke="#FFFFFF" stroke-width="0.5" stroke-miterlimit="10" enable-background="new    " x1="866.376" y1="1270.979" x2="848.236" y2="1200.931"/>
	
		<line opacity="0.6" fill="none" stroke="#FFFFFF" stroke-width="0.5" stroke-miterlimit="10" enable-background="new    " x1="848.236" y1="1200.931" x2="864.236" y2="1015.247"/>
	
		<line opacity="0.6" fill="none" stroke="#FFFFFF" stroke-width="0.5" stroke-miterlimit="10" enable-background="new    " x1="1122.904" y1="420.914" x2="1152.236" y2="386.914"/>
	<line fill="none" stroke="#FFFFFF" stroke-miterlimit="10" x1="988.236" y1="432.914" x2="1001.236" y2="735.914"/>
	<line fill="none" stroke="#FFFFFF" stroke-miterlimit="10" x1="988.236" y1="432.914" x2="1046.236" y2="584.414"/>
	<line fill="none" stroke="#FFFFFF" stroke-miterlimit="10" x1="1046.236" y1="584.414" x2="1001.236" y2="735.914"/>
	<line fill="none" stroke="#FFFFFF" stroke-miterlimit="10" x1="506.236" y1="346.247" x2="364.486" y2="735.914"/>
	<line fill="none" stroke="#FFFFFF" stroke-miterlimit="10" x1="364.486" y1="735.914" x2="572.569" y2="701.914"/>
	<line fill="none" stroke="#FFFFFF" stroke-miterlimit="10" x1="572.569" y1="701.914" x2="435.361" y2="549.914"/>
	<line fill="none" stroke="#FFFFFF" stroke-miterlimit="10" x1="435.361" y1="549.914" x2="455.007" y2="625.914"/>
	<line fill="none" stroke="#FFFFFF" stroke-miterlimit="10" x1="455.007" y1="625.914" x2="364.486" y2="735.914"/>
	<line fill="none" stroke="#FFFFFF" stroke-miterlimit="10" x1="455.007" y1="625.914" x2="572.569" y2="701.914"/>
	
		<line opacity="0.6" fill="none" stroke="#FFFFFF" stroke-width="0.5" stroke-miterlimit="10" enable-background="new    " x1="435.361" y1="549.914" x2="426.622" y2="587.914"/>
	
		<line opacity="0.6" fill="none" stroke="#FFFFFF" stroke-width="0.5" stroke-miterlimit="10" enable-background="new    " x1="426.622" y1="587.914" x2="364.486" y2="735.914"/>
	
		<line opacity="0.6" fill="none" stroke="#FFFFFF" stroke-width="0.5" stroke-miterlimit="10" enable-background="new    " x1="364.486" y1="735.914" x2="364.486" y2="693.979"/>
	
		<line opacity="0.6" fill="none" stroke="#FFFFFF" stroke-width="0.5" stroke-miterlimit="10" enable-background="new    " x1="364.486" y1="693.979" x2="435.361" y2="549.914"/>
	
		<line opacity="0.6" fill="none" stroke="#FFFFFF" stroke-width="0.5" stroke-miterlimit="10" enable-background="new    " x1="435.361" y1="549.914" x2="435.361" y2="621.947"/>
	
		<line opacity="0.6" fill="none" stroke="#FFFFFF" stroke-width="0.5" stroke-miterlimit="10" enable-background="new    " x1="435.361" y1="621.947" x2="455.007" y2="625.914"/>
	
		<line opacity="0.6" fill="none" stroke="#FFFFFF" stroke-width="0.5" stroke-miterlimit="10" enable-background="new    " x1="455.007" y1="625.914" x2="465.236" y2="660.164"/>
	
		<line opacity="0.6" fill="none" stroke="#FFFFFF" stroke-width="0.5" stroke-miterlimit="10" enable-background="new    " x1="465.236" y1="660.164" x2="364.486" y2="735.914"/>
	
		<line opacity="0.6" fill="none" stroke="#FFFFFF" stroke-width="0.5" stroke-miterlimit="10" enable-background="new    " x1="988.236" y1="438.247" x2="982.986" y2="678.688"/>
	
		<line opacity="0.6" fill="none" stroke="#FFFFFF" stroke-width="0.5" stroke-miterlimit="10" enable-background="new    " x1="982.986" y1="678.688" x2="1001.236" y2="735.914"/>
	
		<line opacity="0.6" fill="none" stroke="#FFFFFF" stroke-width="0.5" stroke-miterlimit="10" enable-background="new    " x1="1001.236" y1="735.914" x2="972.236" y2="623.931"/>
	
		<line opacity="0.6" fill="none" stroke="#FFFFFF" stroke-width="0.5" stroke-miterlimit="10" enable-background="new    " x1="972.236" y1="623.931" x2="988.236" y2="438.247"/>
	<line fill="none" stroke="#FFFFFF" stroke-miterlimit="10" x1="875.445" y1="0" x2="877.236" y2="41.75"/>
	<line fill="none" stroke="#FFFFFF" stroke-miterlimit="10" x1="889.638" y1="0" x2="877.236" y2="41.75"/>
	<line fill="none" stroke="#FFFFFF" stroke-miterlimit="10" x1="255.673" y1="0" x2="240.486" y2="41.75"/>
	<line fill="none" stroke="#FFFFFF" stroke-miterlimit="10" x1="240.486" y1="41.75" x2="448.569" y2="7.75"/>
	<line fill="none" stroke="#FFFFFF" stroke-miterlimit="10" x1="448.569" y1="7.75" x2="441.574" y2="0"/>
	<line fill="none" stroke="#FFFFFF" stroke-miterlimit="10" x1="274.843" y1="0" x2="240.486" y2="41.75"/>
	<line fill="none" stroke="#FFFFFF" stroke-miterlimit="10" x1="436.581" y1="0" x2="448.569" y2="7.75"/>
	
		<line opacity="0.6" fill="none" stroke="#FFFFFF" stroke-width="0.5" stroke-miterlimit="10" enable-background="new    " x1="258.014" y1="0" x2="240.486" y2="41.75"/>
	
		<line opacity="0.6" fill="none" stroke="#FFFFFF" stroke-width="0.5" stroke-miterlimit="10" enable-background="new    " x1="240.486" y1="41.75" x2="240.486" y2="-0.185"/>
	
		<line opacity="0.6" fill="none" stroke="#FFFFFF" stroke-width="0.5" stroke-miterlimit="10" enable-background="new    " x1="296.015" y1="0" x2="240.486" y2="41.75"/>
	
		<line opacity="0.6" fill="none" stroke="#FFFFFF" stroke-width="0.5" stroke-miterlimit="10" enable-background="new    " x1="863.603" y1="0" x2="877.236" y2="42.75"/>
	
		<line opacity="0.6" fill="none" stroke="#FFFFFF" stroke-width="0.5" stroke-miterlimit="10" enable-background="new    " x1="877.236" y1="41.75" x2="866.425" y2="0"/>
</g>
</svg>
