<?xml version="1.0" encoding="utf-8"?>
<!-- Generator: Adobe Illustrator 16.0.0, SVG Export Plug-In . SVG Version: 6.00 Build 0)  -->
<!DOCTYPE svg PUBLIC "-//W3C//DTD SVG 1.1//EN" "http://www.w3.org/Graphics/SVG/1.1/DTD/svg11.dtd">
<svg version="1.1" xmlns="http://www.w3.org/2000/svg" xmlns:xlink="http://www.w3.org/1999/xlink" x="0px" y="0px"
	 width="801.564px" height="619.777px" viewBox="0 0 801.564 619.777" enable-background="new 0 0 801.564 619.777"
	 xml:space="preserve">
<g id="Fond">
</g>
<g id="logo">
	<g>
		<g>
			<linearGradient id="SVGID_1_" gradientUnits="userSpaceOnUse" x1="330.4893" y1="69.8198" x2="471.5041" y2="471.8604">
				<stop  offset="0" style="stop-color:#ADCED4"/>
				<stop  offset="0.4889" style="stop-color:#91B8BE"/>
				<stop  offset="1" style="stop-color:#70939A"/>
			</linearGradient>
			<path fill="url(#SVGID_1_)" d="M447.066,404.672c-4.115,12.848-8.036,24.809-11.624,35.582
				c9.647,2.912,19.525,7.777,29.482,15.715c24.383,19.441,28.217,8.965,23.585-6.584
				C482.467,429.098,468.219,413.662,447.066,404.672z"/>
		</g>
		<g>
			<linearGradient id="SVGID_2_" gradientUnits="userSpaceOnUse" x1="357.5381" y1="60.334" x2="498.5522" y2="462.3726">
				<stop  offset="0" style="stop-color:#ADCED4"/>
				<stop  offset="0.4889" style="stop-color:#91B8BE"/>
				<stop  offset="1" style="stop-color:#70939A"/>
			</linearGradient>
			<path fill="url(#SVGID_2_)" d="M514.037,73.961c2.445,11.446,3.284,23.482,2.484,35.95c-0.846,13.194-2.519,27.912-5.007,44.112
				c4.357,8.089,7.033,19.763,2.995,35.864c-14.694,58.585-115.507,34.778-192.5,82.5c-42.085,26.085-50.085,76.085-35.5,112
				c13.861,34.133,51.5,50.999,78.5,52.999c0.051,0.004,0.103,0.006,0.153,0.01c-4.895-14.744-10.374-31.609-16.111-49.883
				c-17.188-12.921-24.561-41.387-7.542-62.125c20.428-24.894,101.339-28.028,147-41c44-12.5,83-44.5,87-101.5
				C578.901,134.561,551.844,94.531,514.037,73.961z"/>
		</g>
		<linearGradient id="SVGID_3_" gradientUnits="userSpaceOnUse" x1="316.0898" y1="36.6616" x2="459.5689" y2="497.4501">
			<stop  offset="0" style="stop-color:#E94764"/>
			<stop  offset="0.4649" style="stop-color:#E2344D"/>
			<stop  offset="1" style="stop-color:#C32A3B"/>
		</linearGradient>
		<path fill="url(#SVGID_3_)" d="M437.79,310.944c-19.056,3.231-38.761,6.573-54.774,10.997
			c-20.233,5.591-26.94,10.917-29.138,13.595c-1.103,1.344-2.009,2.705-2.764,4.064c24.878,83.814,49.585,152.052,49.667,152.279
			l0.001,0.002v-0.002c0.093-0.256,31.444-86.844,59.081-184.774C452.731,308.411,445.34,309.664,437.79,310.944z"/>
		<linearGradient id="SVGID_4_" gradientUnits="userSpaceOnUse" x1="368.0303" y1="20.4863" x2="511.5109" y2="481.2799">
			<stop  offset="0" style="stop-color:#E94764"/>
			<stop  offset="0.4649" style="stop-color:#E2344D"/>
			<stop  offset="1" style="stop-color:#C32A3B"/>
		</linearGradient>
		<path fill="url(#SVGID_4_)" d="M400.782,0L400.782,0c-54.951,0.001-104.055,42.122-99.773,108.887
			c2.548,39.734,12.772,90.718,25.769,142.436c32.308-16.66,66.556-23.173,97.208-28.999c28.656-5.446,49.347-9.817,61.87-18.241
			c7.494-34.797,12.936-67.692,14.699-95.196C504.836,42.122,455.732,0.001,400.782,0z M400.782,134.973
			c-20.048,0-36.301-16.252-36.301-36.3s16.253-36.3,36.301-36.3s36.301,16.252,36.301,36.3S420.83,134.973,400.782,134.973z"/>
		<linearGradient id="SVGID_5_" gradientUnits="userSpaceOnUse" x1="197.6885" y1="116.3994" x2="338.7018" y2="518.4358">
			<stop  offset="0" style="stop-color:#ADCED4"/>
			<stop  offset="0.4889" style="stop-color:#91B8BE"/>
			<stop  offset="1" style="stop-color:#70939A"/>
		</linearGradient>
		<path fill="url(#SVGID_5_)" d="M292.49,168.879c-3.854-22.154-6.351-41.85-7.449-58.968c-0.044-0.688-0.074-1.371-0.108-2.056
			c-29.949,22.339-38.923,34.032-38.923,34.032s-27,1-35,5.5s-13.903,15.962-17.5,22c-4.738,7.954-15.621,23.99-21,30.5
			c-3.171,3.838-8.955,9.708-6.5,20.5c1.915,8.418,6.211,10.761,9.5,13c1.595,1.086,3.082,2.243,4.751,3.45
			c-3.369,3.367-7.367,7.364-9.854,9.85c-5.785,5.783-7.469,0.858-14.498,7.884c4.46-4.458,9.47,0.169,14.317-3.86
			c-4.03,4.847,0.593,9.858-3.868,14.317c7.03-7.026,2.106-8.713,7.892-14.496c2.685-2.684,7.13-7.127,10.645-10.64
			c3.343,1.967,7.688,4.011,14.116,6.051c14,4.444,18.5-0.056,25-5.556s17.494-12.404,24-15c8.414-3.358,19.5-5,31-18
			s3.5-31.5,3.5-31.5S286.662,172.811,292.49,168.879z"/>
		<g>
			<path fill="#709298" d="M30.467,568.422v50.5H18.48v-50.5H0v-9.749h48.988v9.749H30.467z"/>
			<path fill="#709298" d="M92.373,618.922v-25.826H67.43v25.826H55.447v-60.249H67.43v23.989h24.943v-23.989h11.984v60.249H92.373z
				"/>
			<path fill="#709298" d="M112.699,618.922v-60.249h45.012v9.749h-33.027v15.135h30.549v9.746h-30.549v15.867h34.693v9.75
				L112.699,618.922L112.699,618.922z"/>
			<path fill="#709298" d="M238.385,577.744c0,3.878-0.842,7.34-2.521,10.389c-1.676,3.054-4.082,5.41-7.211,7.076
				c-3.125,1.672-6.842,2.505-11.148,2.505h-14.217v21.211h-11.982v-60.252h25.711c6.852,0,12.125,1.661,15.822,4.979
				C236.537,566.977,238.385,571.672,238.385,577.744z M226.322,577.959c0-6.328-3.551-9.493-10.646-9.493h-12.389v19.543h12.715
				c3.301,0,5.85-0.863,7.639-2.588C225.426,583.694,226.322,581.206,226.322,577.959z"/>
			<path fill="#709298" d="M243.969,618.922v-60.249h11.984v50.5h26.182v9.749H243.969z"/>
			<path fill="#709298" d="M330.533,618.922l-5.076-15.393h-21.812l-5.076,15.393h-11.984l20.879-60.249h14.141l20.793,60.249
				H330.533z M314.535,567.953l-0.248,0.94c-0.273,1.023-0.596,2.193-0.973,3.507c-0.379,1.307-2.707,8.523-6.988,21.633h16.453
				l-5.645-17.316l-1.75-5.814L314.535,567.953z"/>
			<path fill="#709298" d="M371.234,609.857c7.23,0,12.254-3.826,15.07-11.46l10.439,4.144c-2.246,5.815-5.545,10.142-9.893,12.982
				c-4.342,2.836-9.551,4.254-15.617,4.254c-9.205,0-16.322-2.742-21.35-8.231c-5.023-5.49-7.531-13.165-7.531-23.024
				c0-9.893,2.42-17.49,7.273-22.792c4.844-5.302,11.869-7.95,21.082-7.95c6.713,0,12.182,1.418,16.41,4.254
				c4.225,2.836,7.189,7.004,8.896,12.508l-10.562,3.034c-0.895-3.018-2.65-5.423-5.262-7.2c-2.611-1.785-5.693-2.676-9.24-2.676
				c-5.412,0-9.523,1.771-12.326,5.303c-2.803,3.536-4.205,8.711-4.205,15.525c0,6.924,1.447,12.21,4.326,15.862
				C361.633,608.031,365.793,609.857,371.234,609.857z"/>
			<path fill="#709298" d="M404.584,618.922v-60.249h45.018v9.749h-33.027v15.135h30.543v9.746h-30.543v15.867h34.688v9.75
				L404.584,618.922L404.584,618.922z"/>
			<path fill="#709298" d="M509.023,568.422v50.5h-11.979v-50.5h-18.484v-9.749h48.99v9.749H509.023z"/>
			<path fill="#709298" d="M588.158,588.521c0,6.268-1.182,11.785-3.537,16.547s-5.727,8.402-10.113,10.924
				c-4.391,2.521-9.506,3.785-15.359,3.785c-8.994,0-16.045-2.786-21.137-8.358c-5.109-5.578-7.658-13.209-7.658-22.897
				c0-9.666,2.543-17.203,7.629-22.621c5.1-5.418,12.178-8.127,21.248-8.127c9.076,0,16.166,2.736,21.27,8.21
				C585.598,571.457,588.158,578.971,588.158,588.521z M575.92,588.521c0-6.502-1.461-11.598-4.385-15.288
				c-2.926-3.694-7.023-5.54-12.311-5.54c-5.352,0-9.494,1.832-12.42,5.496c-2.924,3.663-4.391,8.772-4.391,15.332
				c0,6.61,1.494,11.818,4.49,15.625c2.996,3.808,7.074,5.711,12.25,5.711c5.357,0,9.488-1.854,12.408-5.562
				C574.469,600.594,575.92,595.33,575.92,588.521z"/>
			<path fill="#709298" d="M618.189,619.777c-7.879,0-13.916-2.024-18.092-6.074c-4.182-4.045-6.285-9.826-6.285-17.357v-37.673
				h11.984v36.685c0,4.762,1.076,8.376,3.238,10.842c2.152,2.467,5.314,3.697,9.48,3.697c4.275,0,7.568-1.286,9.869-3.868
				c2.295-2.582,3.455-6.278,3.455-11.096v-36.26h11.982v37.026c0,7.643-2.244,13.562-6.725,17.771
				C632.617,617.676,626.311,619.777,618.189,619.777z"/>
			<path fill="#709298" d="M702.379,601.73c0,5.473-1.947,9.705-5.85,12.701c-3.9,2.996-9.318,4.49-16.248,4.49h-28.641v-60.249
				h26.197c6.996,0,12.275,1.277,15.861,3.829c3.592,2.549,5.385,6.32,5.385,11.305c0,3.421-0.898,6.31-2.703,8.66
				c-1.805,2.353-4.541,3.941-8.227,4.77c4.635,0.574,8.16,2.102,10.582,4.596S702.379,597.625,702.379,601.73z M687.023,575.52
				c0-2.706-0.816-4.631-2.455-5.771s-4.066-1.708-7.293-1.708h-13.65v14.922h13.732c3.383,0,5.838-0.618,7.371-1.862
				C686.256,579.862,687.023,578,687.023,575.52z M690.352,600.748c0-5.645-3.842-8.469-11.537-8.469h-15.195v17.274h15.643
				c3.844,0,6.652-0.733,8.43-2.201C689.469,605.888,690.352,603.684,690.352,600.748z"/>
			<path fill="#709298" d="M708.895,618.922v-60.249h11.984v60.249H708.895z"/>
			<path fill="#709298" d="M779.92,601.73c0,5.473-1.947,9.705-5.85,12.701c-3.895,2.996-9.312,4.49-16.248,4.49h-28.641v-60.249
				h26.201c6.986,0,12.271,1.277,15.863,3.829c3.586,2.549,5.379,6.32,5.379,11.305c0,3.421-0.898,6.31-2.703,8.66
				c-1.799,2.353-4.541,3.941-8.221,4.77c4.629,0.574,8.154,2.102,10.576,4.596C778.711,594.326,779.92,597.625,779.92,601.73z
				 M764.564,575.52c0-2.706-0.816-4.631-2.455-5.771s-4.066-1.708-7.289-1.708h-13.648v14.922h13.727
				c3.383,0,5.838-0.618,7.365-1.862C763.797,579.862,764.564,578,764.564,575.52z M767.896,600.748
				c0-5.645-3.84-8.469-11.537-8.469h-15.188v17.274h15.635c3.846,0,6.654-0.733,8.432-2.201
				C767.01,605.888,767.896,603.684,767.896,600.748z"/>
			<path fill="#E15262" d="M790.006,570.496c-1.932-1.285-2.893-3.081-2.893-5.385c0-2.306,0.691-4.133,2.064-5.476
				c1.367-1.344,3.09-2.014,5.164-2.014c2.064,0,3.797,0.643,5.164,1.928c1.369,1.283,2.059,2.946,2.059,4.991
				c0,2.044-0.646,4.058-1.932,6.041l-6.389,9.283h-7.184L790.006,570.496z"/>
		</g>
	</g>
</g>
<g id="Calque_4">
</g>
<g id="Modèle" display="none">
</g>
</svg>
