<?xml version="1.0" encoding="utf-8"?>
<!-- Generator: Adobe Illustrator 16.0.0, SVG Export Plug-In . SVG Version: 6.00 Build 0)  -->
<!DOCTYPE svg PUBLIC "-//W3C//DTD SVG 1.1//EN" "http://www.w3.org/Graphics/SVG/1.1/DTD/svg11.dtd">
<svg version="1.1" id="Calque_1" xmlns="http://www.w3.org/2000/svg" xmlns:xlink="http://www.w3.org/1999/xlink" x="0px" y="0px"
	 width="283.751px" height="235.002px" viewBox="0 0 283.751 235.002" enable-background="new 0 0 283.751 235.002"
	 xml:space="preserve">
<g>
	<path fill="#6F9298" d="M10.785,216.822v17.877H6.542v-17.877H0v-3.451h17.342v3.451H10.785z"/>
	<path fill="#6F9298" d="M32.7,234.699v-9.143h-8.83v9.143h-4.242v-21.328h4.242v8.492h8.83v-8.492h4.242v21.328H32.7z"/>
	<path fill="#6F9298" d="M39.896,234.699v-21.328h15.933v3.451H44.138v5.357h10.814v3.45H44.138v5.617h12.281v3.451L39.896,234.699
		L39.896,234.699z"/>
	<path fill="#6F9298" d="M84.387,220.122c0,1.373-0.297,2.599-0.892,3.678c-0.594,1.081-1.445,1.915-2.552,2.505
		c-1.107,0.592-2.423,0.887-3.947,0.887h-5.033v7.509h-4.242v-21.329h9.102c2.425,0,4.292,0.588,5.601,1.763
		C83.733,216.311,84.387,217.973,84.387,220.122z M80.117,220.198c0-2.24-1.256-3.36-3.768-3.36h-4.386v6.918h4.501
		c1.169,0,2.071-0.306,2.704-0.916C79.8,222.229,80.117,221.348,80.117,220.198z"/>
	<path fill="#6F9298" d="M86.364,234.699v-21.328h4.242v17.877h9.269v3.451H86.364z"/>
	<path fill="#6F9298" d="M117.008,234.699l-1.797-5.449h-7.722l-1.797,5.449h-4.242l7.391-21.328h5.005l7.361,21.328H117.008z
		 M111.344,216.656l-0.087,0.333c-0.097,0.362-0.211,0.776-0.345,1.241c-0.134,0.463-0.958,3.018-2.473,7.658h5.823l-1.998-6.13
		l-0.619-2.059L111.344,216.656z"/>
	<path fill="#6F9298" d="M131.416,231.49c2.56,0,4.338-1.354,5.335-4.057l3.696,1.467c-0.796,2.059-1.963,3.59-3.502,4.596
		c-1.538,1.004-3.382,1.506-5.529,1.506c-3.259,0-5.778-0.971-7.557-2.914c-1.779-1.943-2.667-4.66-2.667-8.15
		c0-3.502,0.857-6.191,2.574-8.068c1.716-1.877,4.203-2.814,7.463-2.814c2.377,0,4.313,0.502,5.81,1.506
		c1.495,1.004,2.545,2.479,3.149,4.428l-3.739,1.074c-0.316-1.068-0.938-1.92-1.862-2.549c-0.925-0.632-2.016-0.947-3.271-0.947
		c-1.917,0-3.372,0.627-4.364,1.877c-0.992,1.252-1.488,3.084-1.488,5.496c0,2.451,0.511,4.322,1.531,5.615
		C128.016,230.844,129.489,231.49,131.416,231.49z"/>
	<path fill="#6F9298" d="M143.222,234.699v-21.328h15.936v3.451h-11.691v5.357h10.812v3.45h-10.812v5.617h12.279v3.451
		L143.222,234.699L143.222,234.699z"/>
	<path fill="#6F9298" d="M180.192,216.822v17.877h-4.239v-17.877h-6.543v-3.451h17.342v3.451H180.192z"/>
	<path fill="#6F9298" d="M208.206,223.938c0,2.219-0.418,4.172-1.252,5.857s-2.027,2.975-3.58,3.867
		c-1.555,0.893-3.365,1.34-5.438,1.34c-3.184,0-5.68-0.986-7.482-2.959c-1.81-1.975-2.711-4.676-2.711-8.105
		c0-3.422,0.899-6.09,2.701-8.008c1.805-1.918,4.311-2.877,7.521-2.877c3.213,0,5.722,0.969,7.529,2.906
		C207.3,217.896,208.206,220.557,208.206,223.938z M203.875,223.938c0-2.302-0.518-4.105-1.553-5.412
		c-1.035-1.308-2.486-1.961-4.357-1.961c-1.896,0-3.362,0.648-4.397,1.945c-1.034,1.297-1.554,3.105-1.554,5.428
		c0,2.34,0.529,4.184,1.589,5.531c1.062,1.348,2.505,2.021,4.336,2.021c1.897,0,3.36-0.656,4.394-1.969
		C203.361,228.211,203.875,226.348,203.875,223.938z"/>
	<path fill="#6F9298" d="M218.837,235.002c-2.789,0-4.926-0.717-6.404-2.15c-1.48-1.432-2.225-3.479-2.225-6.145v-13.336h4.242
		v12.986c0,1.686,0.381,2.965,1.146,3.838c0.762,0.873,1.881,1.309,3.355,1.309c1.514,0,2.68-0.455,3.494-1.369
		c0.812-0.914,1.223-2.223,1.223-3.928v-12.836h4.242v13.107c0,2.705-0.795,4.801-2.381,6.291
		C223.944,234.258,221.712,235.002,218.837,235.002z"/>
	<path fill="#6F9298" d="M248.64,228.613c0,1.938-0.689,3.436-2.07,4.496s-3.299,1.59-5.752,1.59h-10.139v-21.328h9.273
		c2.477,0,4.346,0.452,5.615,1.355c1.271,0.902,1.906,2.237,1.906,4.002c0,1.211-0.318,2.233-0.957,3.065
		c-0.639,0.833-1.607,1.396-2.912,1.688c1.641,0.203,2.889,0.744,3.746,1.627S248.64,227.16,248.64,228.613z M243.204,219.335
		c0-0.958-0.289-1.64-0.869-2.043s-1.439-0.604-2.582-0.604h-4.832v5.282h4.861c1.197,0,2.066-0.219,2.609-0.659
		C242.933,220.872,243.204,220.213,243.204,219.335z M244.382,228.266c0-1.998-1.359-2.998-4.084-2.998h-5.379v6.115h5.537
		c1.361,0,2.355-0.26,2.984-0.779C244.069,230.085,244.382,229.305,244.382,228.266z"/>
	<path fill="#6F9298" d="M250.946,234.699v-21.328h4.242v21.328H250.946z"/>
	<path fill="#6F9298" d="M276.089,228.613c0,1.938-0.689,3.436-2.07,4.496c-1.379,1.061-3.297,1.59-5.752,1.59h-10.139v-21.328
		h9.275c2.473,0,4.344,0.452,5.615,1.355c1.27,0.902,1.904,2.237,1.904,4.002c0,1.211-0.318,2.233-0.957,3.065
		c-0.637,0.833-1.607,1.396-2.912,1.688c1.641,0.203,2.889,0.744,3.746,1.627C275.661,225.992,276.089,227.16,276.089,228.613z
		 M270.653,219.335c0-0.958-0.289-1.64-0.869-2.043s-1.439-0.604-2.58-0.604h-4.832v5.282h4.859c1.197,0,2.066-0.219,2.607-0.659
		C270.382,220.872,270.653,220.213,270.653,219.335z M271.833,228.266c0-1.998-1.359-2.998-4.084-2.998h-5.377v6.115h5.535
		c1.361,0,2.355-0.26,2.984-0.779C271.519,230.085,271.833,229.305,271.833,228.266z"/>
	<path fill="#E15362" d="M279.659,217.557c-0.684-0.455-1.023-1.091-1.023-1.906c0-0.816,0.244-1.463,0.73-1.938
		c0.484-0.476,1.094-0.713,1.828-0.713c0.73,0,1.344,0.228,1.828,0.683c0.484,0.454,0.729,1.043,0.729,1.767
		s-0.229,1.437-0.684,2.139l-2.262,3.286h-2.543L279.659,217.557z"/>
</g>
<g>
	<path fill="#528E96" d="M164.029,168.91c-1.684,5.252-3.287,10.145-4.754,14.549c3.945,1.191,7.984,3.182,12.056,6.426
		c9.97,7.951,11.538,3.666,9.644-2.691C178.503,178.898,172.677,172.586,164.029,168.91z"/>
</g>
<g>
	<path fill="#528E96" d="M191.414,33.679c1,4.68,1.342,9.602,1.016,14.701c-0.346,5.395-1.029,11.413-2.047,18.038
		c1.781,3.307,2.875,8.08,1.225,14.664c-6.01,23.955-47.232,14.221-78.715,33.734c-17.209,10.666-20.48,31.111-14.516,45.797
		c5.668,13.959,21.059,20.855,32.099,21.674c0.021,0,0.042,0.002,0.062,0.004c-2.001-6.029-4.242-12.926-6.588-20.398
		c-7.028-5.283-10.043-16.924-3.084-25.404c8.353-10.18,41.439-11.461,60.109-16.766c17.992-5.111,33.94-18.195,35.577-41.504
		C217.938,58.459,206.872,42.091,191.414,33.679z"/>
</g>
<g>
	<path fill="#528E96" d="M96.74,75.357c0,0,1.698-1.258,4.081-2.865c-1.576-9.06-2.597-17.112-3.046-24.112
		c-0.018-0.281-0.031-0.562-0.044-0.841c-12.247,9.135-15.916,13.915-15.916,13.915s-11.041,0.409-14.312,2.249
		c-3.271,1.841-5.686,6.527-7.156,8.996c-1.938,3.252-6.388,9.809-8.587,12.471c-1.297,1.57-3.662,3.971-2.658,8.383
		c0.783,3.443,2.54,4.4,3.885,5.316c2.194,1.494,3.885,3.316,9.609,5.135c5.725,1.816,7.565-0.023,10.223-2.273
		c2.658-2.248,7.154-5.07,9.814-6.133c3.44-1.373,7.974-2.045,12.676-7.359C100.011,82.922,96.74,75.357,96.74,75.357z"/>
</g>
<path fill="#E3434F" d="M160.236,130.584c-7.793,1.32-15.85,2.688-22.398,4.496c-8.273,2.287-11.016,4.465-11.915,5.559
	c-0.451,0.551-0.821,1.107-1.13,1.662c10.173,34.271,20.275,62.176,20.31,62.27h0.001l0,0c0.037-0.105,12.857-35.512,24.158-75.557
	C166.345,129.547,163.322,130.061,160.236,130.584z"/>
<path fill="#E3434F" d="M145.103,3.436L145.103,3.436c-22.471,0-42.549,17.224-40.799,44.525
	c1.042,16.248,5.223,37.094,10.537,58.242c13.211-6.812,27.215-9.475,39.75-11.857c11.718-2.227,20.179-4.014,25.3-7.459
	c3.064-14.229,5.289-27.68,6.01-38.926C187.65,20.66,167.572,3.437,145.103,3.436z M145.103,58.628
	c-8.199,0-14.844-6.646-14.844-14.844c0-8.197,6.645-14.843,14.844-14.843c8.197,0,14.844,6.646,14.844,14.843
	C159.947,51.982,153.3,58.628,145.103,58.628z"/>
<path fill="#528E96" d="M58.186,98.57L58.186,98.57l-0.772-0.773c0,0-4.486,4.484-6.514,6.51c-2.365,2.365-3.054,0.352-5.928,3.225
	c1.824-1.824,3.872,0.068,5.854-1.578c-1.648,1.98,0.243,4.031-1.582,5.854c2.875-2.873,0.861-3.562,3.227-5.928
	c2.027-2.025,6.514-6.51,6.514-6.51L58.186,98.57z"/>
</svg>
