<?xml version="1.0" encoding="utf-8"?>
<!-- Generator: Adobe Illustrator 16.0.0, SVG Export Plug-In . SVG Version: 6.00 Build 0)  -->
<!DOCTYPE svg PUBLIC "-//W3C//DTD SVG 1.1//EN" "http://www.w3.org/Graphics/SVG/1.1/DTD/svg11.dtd">
<svg version="1.1" id="Calque_1" xmlns="http://www.w3.org/2000/svg" xmlns:xlink="http://www.w3.org/1999/xlink" x="0px" y="0px"
	 width="289.333px" height="25px" viewBox="0 0 289.333 25" enable-background="new 0 0 289.333 25" xml:space="preserve">
<g>
	<path fill="#6F9298" d="M12.743,5.322v17.877H8.5V5.322H1.958V1.871H19.3v3.451H12.743z"/>
	<path fill="#6F9298" d="M34.658,23.199v-9.143h-8.83v9.143h-4.242V1.871h4.242v8.492h8.83V1.871H38.9v21.328H34.658z"/>
	<path fill="#6F9298" d="M41.854,23.199V1.871h15.933v3.451H46.096v5.358H56.91v3.45H46.096v5.617h12.281v3.451L41.854,23.199
		L41.854,23.199z"/>
	<path fill="#6F9298" d="M86.345,8.622c0,1.373-0.297,2.599-0.892,3.678c-0.594,1.081-1.445,1.915-2.552,2.505
		c-1.107,0.592-2.423,0.887-3.947,0.887h-5.033v7.508h-4.242V1.871h9.102c2.425,0,4.292,0.588,5.601,1.763
		C85.691,4.81,86.345,6.473,86.345,8.622z M82.075,8.698c0-2.24-1.256-3.36-3.768-3.36h-4.386v6.918h4.501
		c1.169,0,2.071-0.306,2.704-0.916C81.758,10.729,82.075,9.848,82.075,8.698z"/>
	<path fill="#6F9298" d="M88.322,23.199V1.871h4.242v17.877h9.269v3.451H88.322z"/>
	<path fill="#6F9298" d="M118.966,23.199l-1.797-5.449h-7.722l-1.797,5.449h-4.242l7.391-21.328h5.005l7.361,21.328H118.966z
		 M113.302,5.156l-0.087,0.333c-0.097,0.363-0.211,0.777-0.345,1.241c-0.134,0.464-0.958,3.018-2.473,7.659h5.823l-1.998-6.13
		L113.603,6.2L113.302,5.156z"/>
	<path fill="#6F9298" d="M133.374,19.99c2.56,0,4.338-1.354,5.335-4.057l3.696,1.467c-0.796,2.059-1.963,3.59-3.502,4.596
		c-1.538,1.004-3.382,1.506-5.529,1.506c-3.259,0-5.778-0.971-7.557-2.914c-1.779-1.943-2.667-4.66-2.667-8.151
		c0-3.502,0.857-6.191,2.574-8.068c1.716-1.877,4.203-2.815,7.463-2.815c2.377,0,4.313,0.502,5.81,1.506
		c1.495,1.004,2.545,2.48,3.149,4.428l-3.739,1.075c-0.316-1.069-0.938-1.92-1.862-2.55c-0.925-0.631-2.016-0.946-3.271-0.946
		c-1.917,0-3.372,0.626-4.364,1.877c-0.992,1.251-1.488,3.083-1.488,5.495c0,2.452,0.511,4.323,1.531,5.616
		C129.974,19.344,131.447,19.99,133.374,19.99z"/>
	<path fill="#6F9298" d="M145.18,23.199V1.871h15.935v3.451h-11.691v5.358h10.812v3.45h-10.812v5.617h12.279v3.451L145.18,23.199
		L145.18,23.199z"/>
	<path fill="#6F9298" d="M182.15,5.322v17.877h-4.24V5.322h-6.543V1.871h17.342v3.451H182.15z"/>
	<path fill="#6F9298" d="M210.164,12.437c0,2.219-0.418,4.172-1.252,5.858s-2.027,2.975-3.58,3.867
		c-1.554,0.893-3.365,1.34-5.437,1.34c-3.183,0-5.679-0.986-7.483-2.959c-1.809-1.975-2.711-4.676-2.711-8.106
		c0-3.421,0.9-6.09,2.702-8.008c1.804-1.917,4.31-2.876,7.521-2.876c3.213,0,5.722,0.969,7.529,2.906
		C209.259,6.397,210.164,9.056,210.164,12.437z M205.833,12.437c0-2.301-0.518-4.105-1.553-5.412s-2.486-1.96-4.357-1.96
		c-1.896,0-3.363,0.648-4.398,1.945c-1.035,1.296-1.554,3.105-1.554,5.427c0,2.34,0.53,4.184,1.589,5.532
		c1.061,1.348,2.505,2.021,4.336,2.021c1.898,0,3.361-0.656,4.393-1.969C205.319,16.711,205.833,14.848,205.833,12.437z"/>
	<path fill="#6F9298" d="M220.796,23.502c-2.789,0-4.926-0.717-6.406-2.15c-1.48-1.432-2.223-3.479-2.223-6.145V1.871h4.242v12.986
		c0,1.686,0.381,2.965,1.145,3.838c0.762,0.873,1.881,1.309,3.357,1.309c1.514,0,2.68-0.455,3.493-1.369
		c0.814-0.914,1.224-2.223,1.224-3.928V1.871h4.242v13.107c0,2.705-0.795,4.801-2.381,6.291
		C225.903,22.758,223.671,23.502,220.796,23.502z"/>
	<path fill="#6F9298" d="M250.598,17.113c0,1.938-0.69,3.436-2.071,4.496c-1.38,1.061-3.298,1.59-5.752,1.59h-10.138V1.871h9.274
		c2.475,0,4.346,0.452,5.615,1.355c1.271,0.903,1.905,2.238,1.905,4.003c0,1.211-0.317,2.233-0.956,3.065
		c-0.639,0.833-1.607,1.396-2.912,1.688c1.641,0.203,2.889,0.744,3.746,1.627C250.167,14.492,250.598,15.66,250.598,17.113z
		 M245.162,7.835c0-0.958-0.289-1.64-0.869-2.043s-1.44-0.605-2.582-0.605h-4.832v5.283h4.861c1.197,0,2.067-0.219,2.609-0.659
		C244.891,9.372,245.162,8.713,245.162,7.835z M246.341,16.766c0-1.998-1.361-2.998-4.084-2.998h-5.379v6.115h5.537
		c1.36,0,2.355-0.26,2.983-0.779C246.027,18.585,246.341,17.805,246.341,16.766z"/>
	<path fill="#6F9298" d="M252.904,23.199V1.871h4.242v21.328H252.904z"/>
	<path fill="#6F9298" d="M278.048,17.113c0,1.938-0.69,3.436-2.071,4.496c-1.38,1.061-3.298,1.59-5.752,1.59h-10.138V1.871h9.274
		c2.474,0,4.345,0.452,5.615,1.355s1.905,2.238,1.905,4.003c0,1.211-0.318,2.233-0.957,3.065c-0.637,0.833-1.607,1.396-2.911,1.688
		c1.64,0.203,2.888,0.744,3.745,1.627C277.619,14.492,278.048,15.66,278.048,17.113z M272.612,7.835c0-0.958-0.29-1.64-0.87-2.043
		s-1.439-0.605-2.58-0.605h-4.832v5.283h4.859c1.198,0,2.068-0.219,2.609-0.659C272.341,9.372,272.612,8.713,272.612,7.835z
		 M273.791,16.766c0-1.998-1.36-2.998-4.084-2.998h-5.377v6.115h5.535c1.361,0,2.356-0.26,2.984-0.779
		C273.477,18.585,273.791,17.805,273.791,16.766z"/>
	<path fill="#E05161" d="M281.617,6.056c-0.683-0.454-1.023-1.09-1.023-1.906s0.244-1.462,0.73-1.938
		c0.485-0.476,1.094-0.713,1.828-0.713c0.732,0,1.344,0.228,1.829,0.682c0.485,0.455,0.729,1.044,0.729,1.767
		c0,0.724-0.229,1.437-0.684,2.139l-2.263,3.286h-2.542L281.617,6.056z"/>
</g>
</svg>
